<?xml version="1.0" encoding="UTF-8" standalone="no"?>
<svg xmlns:dc="http://purl.org/dc/elements/1.1/" xmlns:cc="http://creativecommons.org/ns#" xmlns:rdf="http://www.w3.org/1999/02/22-rdf-syntax-ns#" xmlns:svg="http://www.w3.org/2000/svg" xmlns="http://www.w3.org/2000/svg" xmlns:xlink="http://www.w3.org/1999/xlink" xmlns:sodipodi="http://sodipodi.sourceforge.net/DTD/sodipodi-0.dtd" xmlns:inkscape="http://www.inkscape.org/namespaces/inkscape" width="2100" height="1900" viewBox="0 0 210 190" version="1.1" inkscape:version="0.92.2 (5c3e80d, 2017-08-06)">
  <title>Stick Pony Template</title>
  <sodipodi:namedview pagecolor="#ffffff" bordercolor="#666666" borderopacity="0.0" inkscape:pageopacity="0.0" inkscape:pageshadow="2" inkscape:zoom="1.4" inkscape:cx="433.98069" inkscape:cy="370.42187" inkscape:document-units="mm" inkscape:current-layer="layer15" showgrid="false" units="px" inkscape:window-width="1920" inkscape:window-height="1025" inkscape:window-x="1276" inkscape:window-y="-4" inkscape:window-maximized="1" inkscape:snap-global="false" showguides="false"/>
  <metadata>
    <rdf:RDF>
      <cc:Work rdf:about="">
        <dc:format>image/svg+xml</dc:format>
        <dc:type rdf:resource="http://purl.org/dc/dcmitype/StillImage"/>
        <dc:title>Stick Pony Template</dc:title>
        <dc:creator>
          <cc:Agent>
            <dc:title>Rebane (Applejuice Pony)</dc:title>
          </cc:Agent>
        </dc:creator>
        <dc:description>Hey. If you found this svg file and want to use it, please ask/dm me first
/u/rebane2001 on Reddit
@rebane2001 on Twitter</dc:description>
      </cc:Work>
    </rdf:RDF>
  </metadata>
  <defs>
    <style type="text/css">
      <![CDATA[
        .coat {
          fill: #999;
        }
      ]]>
    </style>
    
    <linearGradient id="gradient-mane">
      <stop style="stop-color: #F00" offset="0"></stop>
      <stop style="stop-color: #FF0" offset="0.2"></stop>
      <stop style="stop-color: #0F0" offset="0.4"></stop>
      <stop style="stop-color: #0FF" offset="0.6"></stop>
      <stop style="stop-color: #00F" offset="0.8"></stop>
      <stop style="stop-color: #8000a0" offset="1"></stop>
    </linearGradient>
    <linearGradient id="gradient-tail" xlink:href="#gradient-mane"/>
    
    <linearGradient xlink:href="#gradient-mane" id="nerdy-mane-1"    x1="92.307373" y1="87.397652" x2="122.28463" y2="87.397652" gradientUnits="userSpaceOnUse"/>
    <linearGradient xlink:href="#gradient-mane" id="nerdy-mane-2"    x1="107.80828" y1="56.428234" x2="175.01237" y2="56.428234" gradientUnits="userSpaceOnUse"/>
    <linearGradient xlink:href="#gradient-tail" id="nerdy-tail"      x1="9.3455074" y1="99.770423" x2="61.902782" y2="99.770423" gradientUnits="userSpaceOnUse"/>
    <linearGradient xlink:href="#gradient-mane" id="mighty-mane-1"   x1="83.637329" y1="167.61249" x2="128.47433" y2="167.61249" gradientUnits="userSpaceOnUse" gradientTransform="translate(-0.21172391,-93.770933)"/>
    <linearGradient xlink:href="#gradient-mane" id="mighty-mane-2"   x1="98.437515" y1="51.515953" x2="172.22198" y2="51.515953" gradientUnits="userSpaceOnUse"/>
    <linearGradient xlink:href="#gradient-tail" id="mighty-tail"     x1="23.125690" y1="117.38880" x2="59.852913" y2="117.38880" gradientUnits="userSpaceOnUse"/>
    <linearGradient xlink:href="#gradient-mane" id="soft-mane"       x1="88.281288" y1="71.868156" x2="201.03796" y2="71.868156" gradientUnits="userSpaceOnUse"/>
    <linearGradient xlink:href="#gradient-tail" id="soft-tail"       x1="11.424421" y1="118.55557" x2="61.430492" y2="118.55557" gradientUnits="userSpaceOnUse"/>
    <linearGradient xlink:href="#gradient-mane" id="fast-mane"       x1="146.60622" y1="34.101368" x2="102.24798" y2="100.1427" gradientUnits="userSpaceOnUse"/>
    <linearGradient xlink:href="#gradient-tail" id="fast-tail"       x1="29.824854" y1="96.960052" x2="44.235630" y2="110.56513" gradientUnits="userSpaceOnUse"/>
    <linearGradient xlink:href="#gradient-mane" id="weird-mane"      x1="85.323303" y1="66.124069" x2="186.13777" y2="66.124069" gradientUnits="userSpaceOnUse"/>
    <linearGradient xlink:href="#gradient-tail" id="weird-tail"      x1="11.140988" y1="117.27820" x2="65.115814" y2="117.27820" gradientUnits="userSpaceOnUse"/>
    <radialGradient xlink:href="#gradient-mane" id="hard-mane"       cx="136.31815" cy="71.842285" fx="136.31815" fy="71.842285" r="48.259129" gradientTransform="matrix(1,0,0,0.67549713,0,23.313027)" gradientUnits="userSpaceOnUse"/>
    <linearGradient xlink:href="#gradient-tail" id="hard-tail"       x1="16.631247" y1="114.98917" x2="60.485592" y2="114.98917" gradientUnits="userSpaceOnUse"/>
    <linearGradient xlink:href="#gradient-mane" id="comfy-mane"      x1="79.194046" y1="68.641731" x2="197.42992" y2="68.641731" gradientUnits="userSpaceOnUse"/>
    <linearGradient xlink:href="#gradient-tail" id="comfy-tail"      x1="6.0470481" y1="113.50148" x2="63.273140" y2="113.50148" gradientUnits="userSpaceOnUse"/>
    <linearGradient xlink:href="#gradient-mane" id="precious-mane-1" x1="107.12371" y1="53.607227" x2="200.57324" y2="53.607227" gradientUnits="userSpaceOnUse"/>
    <linearGradient xlink:href="#gradient-mane" id="precious-mane-2" x1="81.444420" y1="91.271828" x2="116.89851" y2="91.271828" gradientUnits="userSpaceOnUse"/>
    <linearGradient xlink:href="#gradient-tail" id="precious-tail"   x1="13.030732" y1="115.23741" x2="65.777145" y2="115.23741" gradientUnits="userSpaceOnUse"/>
    <linearGradient xlink:href="#gradient-mane" id="simple-mane"     x1="85.425392" y1="76.288765" x2="188.08002" y2="76.288765" gradientUnits="userSpaceOnUse"/>
    <linearGradient xlink:href="#gradient-tail" id="simple-tail"     x1="25.109186" y1="119.56736" x2="65.399246" y2="119.56736" gradientUnits="userSpaceOnUse"/>
  </defs>
  <g style="stroke:#000000;stroke-width:3.0427084;stroke-linecap:round;stroke-linejoin:round">
    <path id="body" class="coat" d="M 93.6436,97.461159 C 84.478637,93.05574 69.813975,94.540993 60.570684,103.0363 c -15.678314,14.94099 -4.684522,24.39844 0.826382,28.28301 5.098658,2.67358 40.096454,2.7574 54.094394,-1.35927 7.6732,-3.50764 9.878,-8.73307 11.98101,-13.60007 5.7894,-14.67122 -8.14472,-17.300302 -11.71726,-18.709822 -7.55734,-2.28028 -12.9388,-3.262559 -22.11161,-0.188989 z"/>
    <path id="ear-2" class="coat" d="m 174.95573,59.758034 c 3.36464,-1.799731 8.07879,-15.076747 -5.05543,-24.946427 -5.62473,5.234038 -6.01362,12.562408 -6.75633,19.749254"/>
    <path id="head" class="coat" d="m 116.26224,97.093996 c 5.32643,1.363835 11.11115,2.422146 17.50616,3.073594 7.50971,0.34363 14.9964,0.89438 22.85154,-1.87088 6.59236,-2.494799 12.68748,-5.486849 17.50615,-9.755338 2.95005,-4.2723 5.30542,-9.073206 5.07813,-16.169806 -0.96243,-5.182739 -1.15513,-10.658134 -6.1472,-14.83346 -4.25706,-2.693962 -8.42392,-4.027215 -15.03866,-5.133474 -9.90493,-1.423534 -18.99051,-0.86663 -25.44596,-0.233693 -7.48103,1.524352 -13.94704,4.057406 -20.45283,7.124566 -4.97247,3.13729 -8.4485,7.924181 -11.75986,13.076061 -1.790881,3.244687 -2.110005,6.195022 -2.13816,9.087164 0.639216,2.45721 1.066792,4.96733 3.0736,7.082642 4.81447,2.950623 7.93905,6.866901 14.96709,8.552624 z"/>
    
    <g id="lines" style="fill:none">
      <path id="leg2" d="m 72.496857,133.50947 c 2.025514,9.19468 6.548106,11.51486 7.349915,18.4416 -2.561333,3.00678 -0.856208,0.81495 -7.416729,9.15398"/>
      <path id="leg1" d="m 61.538809,131.83903 c -2.322619,12.43489 -4.371876,17.73533 -4.877669,29.80056"/>
      <path id="leg3" d="m 100.06326,132.90811 c -0.111375,9.08716 -2.037259,17.57818 -1.336392,25.85833 0.104807,1.87483 0.131677,1.99004 1.069112,3.14041"/>
      <path id="leg4" d="m 110.81,129.3 c 1.438,8.157 4.343,11.537 6.949,16.972 m 0.834,2.68 c -3.115,5.496 -4.175,6.964 -5.623,10.395"/>
      <path id="eye1" d="m 135.63929,67.493896 c -1.85789,5.253133 -1.06516,7.650723 -1.33636,11.158504"/>
      <path id="eye2" d="m 148.54464,78.089878 c 1.43314,-2.377516 0.56309,-3.470369 0.85045,-10.441589"/>
      <path id="mouth" d="m 131.12911,87.338657 c 2.46119,8.703476 7.25259,3.768499 7.98467,1.870889"/>
      <path id="wing" d="m 97.152472,105.1789 c -6.463379,0.91172 -13.531895,1.59945 -19.510674,2.6727 -1.556732,3.94222 -3.074009,7.88445 -1.670436,11.82667 l 3.808592,-3.20723 c 1.400556,2.06742 0.903739,2.82559 1.670434,3.94222 1.259768,-1.66042 2.149384,-3.99115 4.209495,-5.0113 1.545018,1.03299 1.409798,3.70692 1.403164,5.94675 2.676214,-2.0816 4.357128,-4.86412 7.14946,-6.81538 0.492998,2.5493 0.326242,5.29652 2.472243,7.34992 4.77945,-3.99876 7.70385,-10.6818 11.69305,-16.103"/>
    </g>
    
    <path class="nerdy mane" style="fill:url(#nerdy-mane-1)" d="M 120.76339,105.87113 C 117.52162,101.89774 112.97298,98.612165 114.2433,92.263988 98.816577,84.231994 98.682206,76.2 99.313242,68.168006 l -1.889879,0.09449 c -3.996612,7.829986 -5.727659,17.359145 0.28348,32.694944 10.221737,6.26277 17.084167,6.39974 23.056547,4.91369 z"/>
    <path class="nerdy mane" style="fill:url(#nerdy-mane-2)" d="m 115.18824,67.317558 c 23.50113,-10.860091 41.8193,-8.762768 58.30283,-2.078868 -1.15243,-5.824624 -2.36256,-11.654904 -16.06399,-18.709822 -6.80357,-1.312175 -13.98512,-1.643096 -20.97768,1.039434 -2.04334,0.310947 -3.93926,0.474484 -5.48065,0.283482 -6.45701,1.961748 -14.62396,1.819755 -21.63914,7.181549 1.46038,4.258907 3.66062,8.271194 5.85863,12.284225 z"/>
    <path class="nerdy tail" style="fill:url(#nerdy-tail)" d="M 30.1436,117.87188 C 24.926183,100.91512 39.000856,89.222218 60.381697,102.75283 56.831932,96.351471 54.01118,89.918415 44.884673,83.759523 38.90005,80.357738 30.521578,81.11369 19.749256,86.027381 c -4.741247,6.614582 -6.854735,13.229163 -8.882441,19.843749 8.228827,0.99486 13.076592,7.62483 19.276785,12.00075 z"/>
    
    <path class="mighty mane" style="fill:url(#mighty-mane-1)" d="m 89.590838,106.21021 c 4.292139,5.25263 9.659494,6.47321 15.367992,6.41447 7.14669,-2.37324 12.16042,-6.64245 9.75534,-17.506161 -1.55076,-6.15344 -6.27311,-9.92818 -10.55715,-14.03165 -1.91806,-1.58263 -3.55534,-3.82043 -4.409937,-7.88445 l 1.870877,-14.298918 8.15172,0.26727 c 7.98993,-2.69543 8.37672,-3.10992 9.48807,-3.74178 l 7.48355,-8.55262 c -2.29585,-2.96283 -3.27927,-5.48819 -7.48355,-9.08717 -1.76904,-1.16455 -3.37717,-2.409541 -7.21628,-2.539061 -5.1137,-0.36505 -10.1545,-0.43846 -14.566178,2.004531 -7.596839,5.711919 -13.320454,12.36045 -12.428038,22.317 -0.446641,7.429368 0.580754,14.531168 3.340871,21.247928 2.141136,3.86349 4.744477,5.87816 7.216277,8.41899 3.80557,4.13928 10.012238,7.85484 2.27179,14.031661 -3.34998,2.36795 -5.384201,3.21428 -8.285354,2.93996 z"/>
    <path class="mighty tail" style="fill:url(#mighty-tail)" d="m 55.592063,107.71796 c -9.182722,-5.47914 -15.456699,-1.30922 -15.234366,6.21402 2.807979,10.05335 6.165958,20.3667 -0.534538,25.92514 -5.374726,2.50647 -10.34942,1.81269 -14.833458,-2.80633 6.446446,-1.54961 7.26966,-8.11996 3.741773,-18.57523 -2.795491,-6.60137 -4.62604,-11.99657 -3.875408,-14.16529 1.968626,-7.328123 7.865764,-9.644006 14.967093,-10.423508 4.602258,-0.605047 9.214277,-1.058803 14.165285,3.741772 1.95825,2.281089 3.62913,4.444766 4.34313,6.548106 -0.420092,0.59204 -1.788291,1.70695 -2.739511,3.54132 z"/>
    
    <path class="soft mane" style="fill:url(#soft-mane)" d="m 89.802562,101.37031 c 3.866208,10.06706 17.468698,7.68834 20.847018,1.73725 -0.26465,-4.124125 2.31813,-5.514722 -6.28083,-17.639789 -3.43491,-0.915647 -4.459611,-6.049152 -5.078122,-11.893494 0.69056,-6.244325 6.340112,-9.783744 10.690782,-14.031648 2.48277,-1.795888 4.0547,-4.684792 8.15172,-4.543584 2.28728,0.133635 4.88473,0.26727 7.88445,0.400905 3.75193,-0.209961 8.57066,-2.197908 13.36348,-4.142677 10.4184,-2.178226 13.88648,1.115234 20.71339,2.138157 6.36546,1.474447 10.53731,5.142497 15.63526,7.88445 6.24939,7.33126 3.91686,13.148066 4.67722,19.510674 1.12607,5.262252 0.30835,11.334416 5.34539,14.967096 5.91604,1.613938 10.50669,1.350243 12.16076,-3.073602 1.42968,-3.465304 1.12192,-4.614037 1.60362,-6.815372 -7.14327,5.508252 -9.70031,3.258665 -9.75534,-2.138156 0.31749,-7.839906 0.88101,-15.679812 0.53454,-23.519718 -1.55351,-7.589087 -3.09038,-15.184981 -12.2944,-19.644312 -7.18946,-2.60769 -14.09152,-4.735752 -25.65787,-5.078119 -9.53262,0.374916 -16.79344,3.021397 -25.25697,5.479024 -6.21962,3.106938 -12.98927,5.113822 -18.57523,9.488069 -6.31967,4.402382 -10.961684,9.853293 -14.432556,16.036171 -4.22991,5.983765 -1.857971,11.60076 0.133633,17.238885 2.307638,4.187222 4.149785,8.374445 5.746295,12.561667 -0.552097,3.512457 -1.595404,6.087533 -10.15624,5.078123 z"/>
    <path class="soft tail" style="fill:url(#soft-tail)" d="m 56.97991,106.15461 c -2.61349,-2.0831 -5.105029,-3.16954 -8.220981,-2.74033 -10.029208,5.25427 -3.709628,27.44735 -12.189733,31.65551 -0.80825,-1.72408 -1.226382,-7.92846 -1.795387,-12.28423 -0.957409,4.68697 -1.513654,9.57452 -3.401785,13.79613 -4.755547,4.8296 -8.608792,11.5927 -18.426339,5.57515 3.44226,-3.52987 7.547507,-2.22941 9.35491,-17.67038 0.483212,-7.25024 1.41648,-14.51924 7.843005,-22.01712 l -7.654017,-0.0945 c 5.584543,-4.516057 10.954637,-9.583556 18.237351,-9.732886 8.169965,-0.28353 12.262047,6.198402 19.182291,10.488836 z"/>
    
    <path class="fast mane" style="fill:url(#fast-mane)" d="m 110.78322,58.339915 c 4.54356,-0.289515 7.46343,1.339876 10.69078,2.605878 1.6486,-1.164122 1.62271,-2.784926 1.33635,-4.476765 5.06835,1.676747 10.2318,3.757874 12.22758,2.672697 0.88161,-1.291803 -0.1459,-1.848616 0.4009,-3.140419 4.88112,1.01148 9.67561,3.236089 13.69756,5.278574 2.46388,0.696007 3.6937,0.898393 5.3454,1.26953 0.15361,-2.304051 -0.81663,-4.112994 -1.33635,-6.080382 9.80284,1.623069 19.32562,7.192871 27.66239,7.483546 -1.41502,-1.965184 -2.83906,-3.92586 -4.00904,-6.013563 4.26375,-3.496294 12.89371,0.497218 16.04567,-2.516133 -9.81821,-5.482006 -20.99564,-10.941135 -29.14188,-14.990021 -7.41208,-2.061471 -14.36347,-5.351438 -22.45064,-5.612659 -4.68943,-0.773846 -9.72662,-1.348875 -14.69982,-0.133636 -7.03461,1.959888 -11.23334,4.583164 -15.0697,7.954627 -3.85599,3.329748 -7.53812,7.196211 -11.22532,10.958049 -3.608828,5.434203 -7.259164,10.974646 -10.96615,16.397936 -2.587548,4.279632 -4.166921,8.77461 -3.274053,14.432554 1.243993,4.217025 2.665703,8.956575 6.057454,12.530633 2.928187,1.84495 2.904582,3.907229 12.428039,4.409949 3.22676,0.15069 6.38729,-0.36083 9.48806,-1.469984 1.48162,-0.255635 1.57727,-1.897233 2.13816,-3.073598 -3.8659,-1.306415 -7.85489,-2.538979 -9.88897,-4.944486 -2.55898,-1.244995 -3.93249,-4.183507 -4.73258,-7.941197 l 7.00437,0.190379 c -2.53198,-2.371476 -5.04249,-4.613018 -6.57914,-6.689845 -1.07822,-1.769837 -2.415939,-3.13253 -2.908931,-5.871823 l 4.929661,-8.669807 c 3.47173,-2.412965 4.31918,-3.045427 6.8302,-4.560034 z"/>
    <path class="fast tail" style="fill:url(#fast-tail)" d="m 59.133383,104.17664 c -2.187506,-0.0939 -4.550769,-0.36354 -6.414469,-0.13363 -2.515794,0.90701 -4.260115,7.1477 -7.750816,9.55488 -0.311815,-0.6946 -0.289543,-2.97773 -0.601358,-4.54358 -5.720085,2.85304 -4.467362,7.73215 -5.211754,11.5594 l -2.672697,-3.4745 c -1.885374,3.92878 -0.22055,8.31727 -2.138156,11.75986 -1.125763,-0.002 -2.950656,-1.68593 -4.409946,-4.34313 -1.821912,3.27906 -0.954368,6.90683 -1.469983,10.02261 -1.695898,-1.4127 -2.437447,-3.97062 -3.274052,-6.41447 l -3.541321,3.34087 c 0.262207,-3.0736 0.660222,-6.21402 0.400905,-9.28762 l -3.741774,2e-5 c 1.29101,-4.97652 5.431031,-9.28913 6.214017,-15.10073 l -5.412208,1.40317 c 2.343861,-3.56097 6.717963,-6.47431 10.022607,-9.554888 l -3.073599,-3.27405 c 6.898762,-2.761256 12.162414,1.017927 17.907057,2.873147 l 0.53454,-4.075861 c 5.873527,0.463722 11.291826,3.810558 16.637526,7.617182 z"/>
    
    <path class="weird mane" style="fill:url(#weird-mane)" d="m 110.78321,103.04074 c -1.46699,-2.48808 -3.83967,-4.674277 -3.34086,-7.817631 0.60943,-3.259365 -0.56925,-6.071705 -2.80634,-8.61944 l 5.81312,1.069076 -10.15624,-10.356694 0.26727,-8.285355 6.34765,-5.211755 c 8.66357,-2.439886 16.75066,-4.974404 26.19241,-6.815373 5.45685,-0.754165 10.54961,-0.514504 16.12256,0.303055 5.64221,2.409203 11.87331,5.519704 18.35521,7.715031 6.45093,-0.476312 13.37189,0.160601 16.57071,-8.018084 l 0.46772,-11.425772 -3.40768,-1.603618 c -3.53655,4.149836 -7.48952,7.675039 -12.09394,10.223059 0.73948,-6.745557 2.55011,-13.40065 4.34312,-19.443857 -1.54256,-2.015582 -3.44719,-3.886335 -5.87993,-5.545844 -3.70575,6.496271 -5.73124,12.782511 -8.0849,19.109772 -1.41038,-6.113153 -4.19043,-11.896651 -9.68852,-14.633006 -4.61881,-2.618617 -10.54876,-3.751283 -17.84024,-3.34087 -8.62378,0.775996 -16.19508,3.957635 -23.58654,7.550365 -6.79595,4.251336 -12.856315,9.560071 -17.639786,16.704344 -3.485291,5.24112 -4.277343,11.492205 -3.741775,18.241147 0.810362,5.761417 0.485192,11.769751 5.67948,17.439336 2.981448,3.017639 7.397561,5.379561 11.225321,9.488066 3.16407,1.236348 4.66754,2.195938 6.88218,3.274048 z"/>
    <path class="weird tail" style="fill:url(#weird-tail)" d="m 57.452381,106.53259 c -4.096806,-0.27772 -8.239145,-2.51337 -12.095239,7.55952 -2.666182,9.03436 -4.659797,17.73243 -8.220983,27.21429 -3.568395,3.19068 -5.435891,7.77853 -15.68601,5.48065 -3.949455,-0.63062 -6.299421,-3.92706 -8.787947,-6.99256 5.95228,-0.70762 10.993229,-4.49098 14.930058,-12.00074 0.346479,-6.12632 0.692958,-14.29326 1.039437,-23.43453 0.894336,-5.884665 4.05118,-9.864061 9.732886,-11.717256 3.3027,1.005099 6.292487,1.036417 11.811756,1.511903 0.220486,1.052435 0.440973,1.836674 0.661459,2.645833 2.24401,-2.38566 -1.785481,-6.586042 -6.047621,-9.638392 8.998748,2.362675 15.348968,6.77194 18.804315,13.418152 z"/>
    
    <path class="hard mane" style="fill:url(#hard-mane)" d="m 100.54167,72.609225 c 2.19739,9.449405 3.71709,18.89881 6.61458,28.348215 -5.44606,2.47854 -11.128553,3.30202 -17.575894,-1.228424 1.511905,-5.921627 3.56928,-9.661372 4.535715,-17.764881 l 1.511904,-28.253719 4.063243,-7.276042 c 22.929802,-1.928583 44.825722,-5.09782 68.886162,-5.669642 14.12041,6.361209 16.49827,15.219312 13.13467,23.62351 L 124.92113,64.10476 c -2.73207,0.197249 -6.51726,0.853277 -8.50446,1.795387 -2.55234,-8.23116 -5.55564,-15.601801 -13.13468,-19.560266 z"/>
    <path class="hard tail" style="fill:url(#hard-tail)" d="m 56.412947,107.57202 c -5.627587,-4.36278 -11.023031,-5.75411 -15.402531,5.85863 -2.597009,10.81799 -2.020265,18.46223 -1.41741,26.08036 -7.853164,1.23756 -14.754309,-1.33297 -21.355655,-5.10268 -0.580373,-8.00057 1.965058,-18.73623 5.386161,-30.23809 2.856352,-7.289331 7.17334,-12.631149 14.552082,-13.890627 7.797272,-1.117458 12.422958,5.261558 17.575895,10.394347 l 3.212795,4.06324 z"/>
    
    <path class="comfy mane" style="fill:url(#comfy-mane)" d="m 171.0525,74.509722 c 1.67381,4.075425 2.88174,8.753754 8.68626,7.483546 1.69069,-1.047813 1.48132,-3.045656 0.66817,-5.34539 1.95245,0 3.04597,0 4.27631,0 4.22487,-2.935498 9.12889,-4.361773 11.22532,-12.027128 -1.58608,-3.928721 0.0224,-9.454737 -11.49259,-8.418991 4.04033,-5.023989 3.14439,-8.46837 0.93545,-11.49259 -7.60034,-4.393402 -14.95336,-3.96392 -22.04974,1.469983 -1.38951,-4.000422 -2.22084,-8.559029 -7.48355,-8.68626 -4.98029,1.209658 -11.85194,0.433402 -12.16076,6.548104 -0.16122,-5.87991 -3.16233,-6.338227 -6.01357,-7.082642 -5.11635,1.571772 -10.57714,2.747888 -10.76234,7.278345 -2.07713,-3.58832 -3.43591,-6.269786 -7.96273,-6.845017 -5.63445,2.786479 -5.73627,6.466424 -6.74381,9.983468 -6.3141,-4.153592 -6.43771,0.768441 -8.34071,3.347583 l -7.483547,9.488069 c -3.959123,1.023667 -7.899273,2.063935 -9.888971,4.81085 -1.248309,2.818699 -1.31637,5.086616 1.202711,6.1472 -6.059059,2.095425 -6.556894,4.916226 -6.949006,7.750818 0.958135,3.361264 2.270424,6.391985 6.949006,6.280832 -2.745515,2.366372 -3.805535,5.030184 -2.27179,8.15172 2.233466,1.320175 3.954724,3.972092 7.349911,2.271792 0.712584,2.096642 1.473462,4.170747 5.879931,4.543576 8.296215,1.05394 7.019565,-3.503794 8.552625,-6.414463 -3.72006,-2.480375 -7.992527,-4.187371 -10.557148,-8.285356 -2.612268,-3.919953 -2.773478,-7.839906 -1.870885,-11.759859 1.157115,-3.140942 3.633255,-5.622373 6.280833,-8.018084 5.8154,-2.797177 11.60266,-5.706918 17.90706,-6.548104 5.61077,-2.465057 11.37643,-3.691002 17.23888,-4.142679 7.36976,0.80115 15.8162,-0.647617 23.78699,2.138156 l 3.0736,1.202714 c 0.94973,-2.431486 2.44041,-3.60075 4.14268,-4.276312 3.16789,-1.66897 5.87251,-1.484857 8.28535,-0.133636 2.21944,1.899012 4.54779,3.716343 4.81085,7.082645 0.38049,3.826686 -0.19566,6.935895 -0.80181,10.022607 -2.80633,2.881374 -5.61265,3.603479 -8.41898,3.474503 z"/>
    <path class="comfy tail" style="fill:url(#comfy-tail)" d="m 60.135642,103.90937 -10.289876,-0.93544 c -0.641586,-0.50632 -0.967676,-0.38165 -1.937284,-1.54402 -0.03224,-0.61421 -0.606279,-1.22842 0.330729,-1.842634 1.103329,-0.268812 1.428507,0.396158 1.653646,1.181174 -0.236235,1.7833 -0.47247,4.34673 -0.708705,6.52009 -1.381908,2.49153 -2.512186,2.21514 -3.732517,2.92932 0,0 -3.722373,0.49044 -3.874254,0.37797 -0.638329,-0.47269 -1.093684,-3.30516 -0.141742,-2.88207 0.897693,-0.3434 1.795387,-0.9968 2.69308,0.18899 -0.09062,2.86731 2.439947,3.70216 2.126117,7.08705 -0.11538,1.48765 0.407602,2.82799 -1.889882,4.8192 -2.900463,0.74285 -4.025093,-0.0897 -6.371631,0.0992 -1.465412,-0.72425 -1.891054,-1.04568 -1.424126,-2.29693 1.900835,-1.31333 3.488369,-0.3969 4.33387,0.40091 2.440869,4.33435 0.547065,3.74031 0.485325,5.57653 -3.915695,4.32975 -8.386168,7.27255 -13.370906,8.92969 -6.044274,-0.30266 -11.779277,-1.75403 -16.583706,-6.66183 -2.7494392,-2.87979 -4.4658207,-7.28737 -3.6528431,-11.05777 3.0384031,5.24762 8.5891131,2.95831 13.2439881,3.35651 -0.156584,-3.2375 1.868383,-3.8968 3.590774,-4.91369 l 4.488467,-0.99219 c 1.891204,0.18455 1.762589,1.12654 2.362351,1.79538 -0.803199,0.17324 0.982324,0.92175 -2.409597,0.51972 -2.791953,-0.12015 -3.402119,-3.14936 -5.102679,-4.7247 2.924957,-4.55922 6.482344,-3.95697 9.174029,-3.94108 l 4.433115,-0.54739 c 0.211218,0.56567 0.75639,1.06455 0.14174,1.79539 -0.896361,-0.34648 -1.80004,-0.69296 -1.653646,-1.03944 -0.37234,-5.59297 0.240902,-10.106499 3.590774,-11.622764 1.508284,1.13058 2.99537,2.287658 5.197173,2.55134 l 3.307292,-1.842635 c 12.212201,2.755985 9.349923,4.306012 13.607142,6.425599 z"/>
    
    <path class="precious mane" style="fill:url(#precious-mane-1)" d="m 180.80783,61.948054 c 1.14784,3.943848 2.17772,7.651759 3.0736,11.091685 5.02426,3.993629 9.77857,3.668017 14.29892,-0.400905 1.32616,-3.290878 0.7781,-7.920476 0.40091,-12.428032 -2.69238,-2.544246 -4.88814,-6.081716 -9.48807,-4.810852 0.24258,-4.132241 0.97729,-8.373845 -0.93545,-12.027128 -3.32832,-3.616501 -6.19962,-7.537684 -12.42803,-9.220797 -10.06762,-3.635656 -21.18184,-2.387179 -31.93871,-2.806333 -9.21924,0.372658 -18.93974,2.666839 -29.66691,8.819896 -6.6011,4.621742 -5.0129,9.873431 -5.47903,14.967093 l 1.33635,2.138156 c 7.22663,-2.401974 12.88826,-5.325614 22.85154,-6.815373 7.46544,-0.386993 14.59801,-1.173437 23.25245,-0.133636 6.25577,0.970539 11.12403,3.883581 16.16981,6.548105 5.58123,2.591996 6.05927,3.653033 9.08716,5.479026"/>
    <path class="precious mane" style="fill:url(#precious-mane-2)" d="m 95.816964,69.301933 c -10.711752,3.599192 -12.757016,12.530361 -12.851191,18.993305 4.522245,18.992372 14.636134,20.320482 23.245537,24.946432 2.24493,-4.78605 5.15946,-10.14603 9.16592,-16.44197 C 94.856262,88.313432 90.418582,79.046422 95.816964,69.301933 Z"/>
    <path class="precious tail" style="fill:url(#precious-tail)" d="m 64.255951,100.20149 c -6.877824,-3.655387 -6.38052,-8.802373 -34.206844,-8.220984 -6.404594,1.688485 -11.120145,4.912465 -12.000744,11.622764 -1.603623,10.07659 3.116429,13.82951 7.087053,18.33185 -5.222189,0.32189 -9.607468,1.77608 -10.583333,7.843 1.465473,5.65314 5.076158,9.31997 13.32366,8.69345 l 4.819197,-4.91369 c -4.205058,-0.001 -8.761588,0.41269 -10.299851,-2.74032 4.562665,-5.88222 8.138323,-3.21038 12.000744,-3.02381 l 2.645833,-6.4256 c -3.769598,-1.8823 -7.724144,-3.59388 -8.315476,-8.40997 2.329539,-4.03637 4.161601,-8.2674 12.095237,-10.11086 6.253811,-1.88425 11.335833,1.2116 16.630954,3.40179 2.070024,-2.06174 3.616847,-4.20922 6.80357,-6.04762 z"/>
    
    <path class="simple mane" style="fill:url(#simple-mane)" d="M 87.501488,112.10774 C 85.597098,94.15387 88.810856,76.200001 93.927082,58.246131 118.52108,37.42278 156.17925,31.331947 181.61756,46.906844 c 7.01391,19.606951 5.03814,38.714475 3.2128,57.830356 -4.36914,-0.57868 -7.88019,1.70296 -13.60715,-3.40178 3.84522,-10.980362 3.90301,-20.337546 4.34673,-29.860123 -1.95508,-3.274913 -4.59666,-6.275227 -11.52828,-7.559524 h -30.0491 c -5.39042,-2.054013 -9.52049,-5.872509 -17.19792,-4.724701 l -7.9375,2.267855 -8.69345,7.748513 c 1.69613,14.339165 8.41927,27.337795 3.40178,43.46726 -5.354661,-0.0363 -10.709321,4.43453 -16.063982,-0.56696 z"/>
    <path class="simple tail" style="fill:url(#simple-tail)" d="m 26.836309,142.34583 c 5.165386,3.08478 9.662672,1.49287 14.363096,1.32292 -0.706021,-12.0366 0.89504,-23.30417 4.724702,-33.82887 2.009634,-6.35338 5.935194,-7.86987 12.473213,-5.66964 l 5.291667,-4.15774 c -3.764885,-3.290672 -7.136865,-6.029308 -15.308036,-4.913692 -10.857195,2.674881 -13.634475,8.581732 -17.197916,14.174112 -4.997076,11.99199 -4.780941,22.56219 -4.346726,33.07291 z"/>
    
    <g id="ear-1">
      <path style="stroke:none" class="coat" d="m 95.930299,47.810697 -1.93771,8.753077 1.1359,9.621703 4.07586,5.345391 4.075841,1.670433 7.95127,-5.211755 v -7.015824 l -2.13815,-6.949008 -3.74178,-4.009044 -7.283081,-3.207234 z"/>
      <path style="fill:none" d="M 111.09783,64.648679 C 110.62051,58.662916 110.99355,49.741573 97.199829,46.47435"/>
      <path style="fill:none" d="M 100.80795,72.466313 C 97.631119,69.9363 90.255599,68.763983 95.930299,47.409795"/>
    </g>
    
    <path class="mighty mane" style="fill:url(#mighty-mane-2)" d="m 169.85789,55.673934 c 1.85903,-6.784075 1.32466,-13.720921 -8.56073,-21.25464 -5.54278,-3.239812 -11.42985,-6.036961 -20.44612,-4.810853 -6.5681,-0.247389 -11.89297,3.412515 -16.70435,8.68626 -2.90651,5.90405 -4.46114,11.582788 -5.87993,17.238885 -2.65657,3.990096 -4.52882,8.72356 -9.48806,10.958049 -2.08168,-0.696787 -5.58405,-1.084653 -8.819898,-3.617634 0.634668,3.58652 0.03819,8.757675 4.472718,10.229198 3.00673,0.506731 6.59267,0.297503 11.96436,-1.800711 3.05136,-0.705375 7.49134,-4.650849 12.02713,-8.819896 2.45037,-2.839577 5.02089,-6.623692 7.34991,-9.087162 2.18356,-1.261558 4.33935,-1.806477 6.64259,-1.893816 2.20772,-0.02271 4.00628,-0.23192 5.92047,0.01343 4.14322,0.05956 4.13752,0.139084 6.61827,0.361766 7.0563,0.80853 6.61288,1.541547 10.13193,2.076086 z"/>
    
    <path id="horn" class="coat" d="m 133.99256,56.923214 c 3.92899,-8.188019 7.94206,-16.416814 9.82738,-24.946429 1.26996,7.348522 2.65448,14.263995 3.02381,22.962054"/>
  </g>
</svg>
